<?xml version="1.0" encoding="UTF-8" standalone="no"?>
<svg
   xmlns:dc="http://purl.org/dc/elements/1.1/"
   xmlns:cc="http://creativecommons.org/ns#"
   xmlns:rdf="http://www.w3.org/1999/02/22-rdf-syntax-ns#"
   xmlns:svg="http://www.w3.org/2000/svg"
   xmlns="http://www.w3.org/2000/svg"
   viewBox="0 0 481.35599 279.09601"
   height="279.09601"
   width="481.35599"
   xml:space="preserve"
   id="svg2"
   version="1.1"><metadata
     id="metadata8"><rdf:RDF><cc:Work
         rdf:about=""><dc:format>image/svg+xml</dc:format><dc:type
           rdf:resource="http://purl.org/dc/dcmitype/StillImage" /></cc:Work></rdf:RDF></metadata><defs
     id="defs6"><clipPath
       id="clipPath26"
       clipPathUnits="userSpaceOnUse"><path
         id="path24"
         d="M 0,209.322 H 361.017 V 0 H 0 Z" /></clipPath></defs><g
     transform="matrix(1.3333333,0,0,-1.3333333,0,279.096)"
     id="g10"><g
       transform="translate(164.8117,115.6949)"
       id="g12"><path
         id="path14"
         style="fill:#2c3c60;fill-opacity:1;fill-rule:nonzero;stroke:none"
         d="m 0,0 h 7.937 v 32.636 h -22.775 l -1.303,-7.937 H 0 Z" /></g><g
       transform="translate(202.1505,103.0582)"
       id="g16"><path
         id="path18"
         style="fill:#2c3c60;fill-opacity:1;fill-rule:nonzero;stroke:none"
         d="M 0,0 H 14.727 V 7.937 H 0 v 7.646 H -7.937 V 7.937 H -22.664 V 0 h 14.727 v -8.743 h -17.028 v -7.938 H -7.937 V -28.645 H 0 v 11.964 h 17.027 v 7.938 L 0,-8.743 Z" /></g><g
       id="g20"><g
         clip-path="url(#clipPath26)"
         id="g22"><g
           transform="translate(172.1798,113.4195)"
           id="g28"><path
             id="path30"
             style="fill:#2c3c60;fill-opacity:1;fill-rule:nonzero;stroke:none"
             d="m 0,0 h -14.269 v 23.382 h -7.937 V -3.374 c 0,-0.953 0.304,-1.908 0.942,-2.616 0.699,-0.774 1.589,-1.159 2.674,-1.159 h 14.345 v -19.155 c 0,-0.547 -0.24,-1.876 -3.363,-2.999 -1.222,-0.439 -2.588,-0.781 -4.067,-1.108 -1.48,-0.329 -2.958,-0.547 -4.437,-0.658 v -7.937 c 0.547,0.055 1.807,0.152 2.957,0.287 1.152,0.139 2.452,0.37 3.904,0.699 1.451,0.329 2.944,0.768 4.479,1.315 1.533,0.548 2.918,1.261 4.149,2.138 1.233,0.876 2.261,1.93 3.082,3.163 0.821,1.231 1.232,2.698 1.232,4.395 V -3.692 C 3.691,-1.653 2.039,0 0,0" /></g><g
           transform="translate(253.298,83.0894)"
           id="g32"><path
             id="path34"
             style="fill:#2c3c60;fill-opacity:1;fill-rule:nonzero;stroke:none"
             d="m 0,0 c -1.973,0 -3.644,0.329 -5.014,0.987 -1.369,0.657 -2.493,1.409 -3.368,2.26 -0.878,0.849 -1.548,1.697 -2.014,2.548 -0.465,0.849 -0.781,1.465 -0.945,1.848 0.056,0.217 0.083,0.437 0.083,0.658 v 0.658 32.756 c 0,0.986 -0.356,1.835 -1.068,2.547 -0.712,0.712 -1.563,1.068 -2.548,1.068 h -12.572 v -7.937 h 8.252 V 8.637 c 0,-1.646 0.091,-3.247 -0.693,-4.356 -0.905,-1.28 -1.945,-2.329 -3.04,-3.205 -1.095,-0.877 -2.602,-1.753 -4.519,-2.631 l 2.548,-7.121 c 0.108,0 0.519,0.164 1.232,0.491 0.71,0.33 1.574,0.795 2.588,1.398 1.013,0.604 2.081,1.356 3.205,2.26 1.122,0.904 2.179,1.986 3.164,3.246 1.532,-1.753 3.505,-3.299 5.917,-4.643 C -6.383,-7.265 -3.451,-7.937 0,-7.937 H 41.948 L 43.251,0 Z" /></g><g
           transform="translate(295.2462,140.7467)"
           id="g36"><path
             id="path38"
             style="fill:#2c3c60;fill-opacity:1;fill-rule:nonzero;stroke:none"
             d="m 0,0 v 5.423 h -11.1 v 3.956 h -7.937 V 5.423 h -11.997 v 3.956 h -7.937 V 5.423 h -11.1 V 0 c 0,-1.388 1.125,-2.514 2.513,-2.514 H -2.513 C -1.125,-2.514 0,-1.388 0,0" /></g><path
           id="path40"
           style="fill:#2c3c60;fill-opacity:1;fill-rule:nonzero;stroke:none"
           d="m 285.038,94.315 h -29.655 v 31.334 h 29.655 z M 247.446,128.56 V 91.405 c 0,-2.777 2.25,-5.027 5.027,-5.027 h 35.476 c 2.776,0 5.027,2.25 5.027,5.027 v 37.155 c 0,2.776 -2.251,5.026 -5.027,5.026 h -35.476 c -2.777,0 -5.027,-2.25 -5.027,-5.026" /><g
           transform="translate(262.506,109.2945)"
           id="g42"><path
             id="path44"
             style="fill:#009544;fill-opacity:1;fill-rule:nonzero;stroke:none"
             d="m 0,0 4.065,27.628 h 9.336 L 8.224,6.249 h 6.313 L 1.964,-18.451 4.712,0 Z" /></g><g
           transform="translate(211.3302,125.5904)"
           id="g46"><path
             id="path48"
             style="fill:#2c3c60;fill-opacity:1;fill-rule:nonzero;stroke:none"
             d="m 0,0 c -1.819,0.517 -3.483,1.098 -5.074,1.708 l 0.003,-0.007 c 0,0 -4.388,-2.997 -7.512,-4.625 2.33,-1.121 4.832,-2.189 7.652,-3.158 3.588,-1.231 8.862,-2.232 13.518,-2.999 v 7.232 C 5.464,-1.356 2.601,-0.739 0,0" /></g><g
           transform="translate(205.4992,129.0455)"
           id="g50"><path
             id="path52"
             style="fill:#2c3c60;fill-opacity:1;fill-rule:nonzero;stroke:none"
             d="m 0,0 c 1.434,1.021 3.88,3.132 5.297,4.639 1.697,1.808 3.054,3.424 4.067,4.849 1.013,1.424 1.712,2.601 2.096,3.533 0.383,0.932 0.603,1.451 0.657,1.562 0.055,0.218 0.109,0.422 0.164,0.617 0.054,0.19 0.083,0.368 0.083,0.533 v 0.493 c 0,0.985 -0.357,1.834 -1.069,2.547 -0.712,0.712 -1.561,1.069 -2.547,1.069 H -26.916 V 11.905 H 1.857 C 0.816,10.591 0.297,9.788 -1.482,8.09 -3.263,6.392 -5.633,4.665 -8.591,2.913 c -1.754,1.096 -3.245,2.191 -4.478,3.288 -1.234,1.094 -2.26,2.08 -3.082,2.958 -0.031,0.033 -0.051,0.059 -0.082,0.092 h -8.939 L -25.19,9.24 c 0.053,-0.109 0.273,-0.451 0.658,-1.027 0.383,-0.574 0.944,-1.328 1.683,-2.259 0.74,-0.932 1.685,-1.987 2.835,-3.164 1.151,-1.178 2.548,-2.397 4.192,-3.656 -1.919,-0.822 -4.014,-1.617 -6.287,-2.384 -2.274,-0.768 -4.725,-1.479 -7.355,-2.136 v -7.251 c 3.89,0.985 9.204,2.252 12.327,3.429 3.004,1.133 6.205,2.521 8.159,3.593 C -6.657,-4.341 -2.156,-1.536 0,0" /></g><g
           transform="translate(142.1061,99.336)"
           id="g54"><path
             id="path56"
             style="fill:#009544;fill-opacity:1;fill-rule:nonzero;stroke:none"
             d="m 0,0 -2.063,-6.898 c 0.279,-0.085 4.266,-1.249 10.596,-1.249 4.057,0 9.079,0.484 14.699,2.032 V 1.388 C 9.968,-2.819 0.098,-0.029 0,0" /></g><g
           transform="translate(100.7526,86.9596)"
           id="g58"><path
             id="path60"
             style="fill:#009544;fill-opacity:1;fill-rule:nonzero;stroke:none"
             d="m 0,0 h -0.577 v 5.42 h -16.484 v 5.619 h 16.484 v 11.634 h -16.484 v 5.619 h 16.484 v 5.42 H 0 c 8.104,0 14.868,-5.721 16.484,-13.344 H 34.139 C 32.346,43.367 13.129,61.476 -10.33,61.476 h -24.955 c -0.837,0 -1.272,-0.997 -0.703,-1.61 l 4.007,-4.32 c 0.547,-0.59 0.852,-1.366 0.852,-2.171 v -72.877 c 0,-0.79 -0.293,-1.553 -0.824,-2.14 l -4.083,-4.522 c -0.556,-0.615 -0.119,-1.6 0.711,-1.6 h 24.995 c 23.459,0 42.676,18.109 44.469,41.108 H 16.484 C 14.868,5.721 8.104,0 0,0" /></g><g
           transform="translate(242.5539,138.7921)"
           id="g62"><path
             id="path64"
             style="fill:#2c3c60;fill-opacity:1;fill-rule:nonzero;stroke:none"
             d="m 0,0 -6.08,-5.102 -9.295,11.077 6.08,5.102 z" /></g><g
           transform="translate(184.7726,62.1939)"
           id="g66"><path
             id="path68"
             style="fill:#2c3c60;fill-opacity:1;fill-rule:nonzero;stroke:none"
             d="m 0,0 -2.199,4.448 h 0.88 L -0.34,2.329 c 0.249,-0.54 0.47,-1.05 0.739,-1.6 h 0.04 c 0.26,0.55 0.51,1.06 0.74,1.6 l 0.989,2.119 h 0.85 L 0.819,0 V -2.868 H 0 Z" /></g><path
           id="path70"
           style="fill:#2c3c60;fill-opacity:1;fill-rule:nonzero;stroke:none"
           d="m 202.322,66.642 h 0.829 v -7.316 h -0.829 z" /><g
           transform="translate(220.4211,60.0055)"
           id="g72"><path
             id="path74"
             style="fill:#2c3c60;fill-opacity:1;fill-rule:nonzero;stroke:none"
             d="M 0,0 C 1.779,0 2.639,1.14 2.639,3.008 2.639,4.877 1.779,5.957 0,5.957 H -0.899 V 0 Z M -1.729,6.637 H 0.07 c 2.249,0 3.418,-1.33 3.418,-3.629 0,-2.298 -1.169,-3.688 -3.387,-3.688 h -1.83 z" /></g><g
           transform="translate(242.0412,62.2838)"
           id="g76"><path
             id="path78"
             style="fill:#2c3c60;fill-opacity:1;fill-rule:nonzero;stroke:none"
             d="m 0,0 -0.38,1.189 c -0.279,0.831 -0.51,1.62 -0.759,2.479 h -0.04 C -1.419,2.799 -1.659,2.02 -1.929,1.189 L -2.309,0 Z m 0.21,-0.649 h -2.729 l -0.749,-2.309 h -0.83 l 2.499,7.316 h 0.91 l 2.508,-7.316 h -0.88 z" /></g><g
           transform="translate(263.2199,63.0133)"
           id="g80"><path
             id="path82"
             style="fill:#2c3c60;fill-opacity:1;fill-rule:nonzero;stroke:none"
             d="m 0,0 c 0,1.869 -0.89,3.029 -2.249,3.029 -1.349,0 -2.238,-1.16 -2.238,-3.029 0,-1.879 0.889,-3.088 2.238,-3.088 C -0.89,-3.088 0,-1.879 0,0 m -5.337,0 c 0,2.329 1.279,3.759 3.088,3.759 1.819,0 3.099,-1.43 3.099,-3.759 0,-2.338 -1.28,-3.817 -3.099,-3.817 -1.809,0 -3.088,1.479 -3.088,3.817" /></g><path
           id="path84"
           style="fill:#2c3c60;fill-opacity:1;fill-rule:nonzero;stroke:none"
           d="m 173.453,62.484 h -24.077 v 1 h 24.077 z" /><path
           id="path86"
           style="fill:#2c3c60;fill-opacity:1;fill-rule:nonzero;stroke:none"
           d="m 295.951,62.484 h -24.077 v 1 h 24.077 z" /></g></g></g></svg>